<svg width="76" height="75" viewBox="0 0 76 75" fill="none" xmlns="http://www.w3.org/2000/svg">
<path d="M71.0337 22.202C71.0332 20.9534 70.7661 19.85 70.2261 18.9033C69.6956 17.9718 68.9011 17.1913 67.8355 16.5742C59.0392 11.5022 50.2344 6.44576 41.4409 1.3686C39.0703 -2.96533e-05 36.7717 0.0501242 34.4186 1.4384C30.9174 3.50298 13.3882 13.5459 8.16472 16.5714C6.01353 17.817 4.96677 19.7228 4.96625 22.1997C4.96289 32.3998 4.96625 42.5999 4.96289 52.8C4.96289 54.0212 5.21909 55.1034 5.73536 56.0359C6.26611 56.9953 7.07167 57.7972 8.16187 58.4283C13.3856 61.4538 30.9172 71.4959 34.4176 73.5613C36.7717 74.9503 39.0703 75 41.4417 73.6311C50.2354 68.5537 59.0408 63.4972 67.8384 58.4252C68.9286 57.7944 69.7341 56.9919 70.2649 56.0333C70.7804 55.1006 71.0371 54.0186 71.0371 52.7971C71.0371 52.7971 71.0371 32.4024 71.0337 22.202Z" fill="#A179DC"/>
<path d="M38.1011 37.4005L5.73535 56.0359C6.2661 56.9953 7.07166 57.7973 8.16186 58.4283C13.3856 61.4538 30.9172 71.4959 34.4176 73.5613C36.7717 74.9503 39.0703 75 41.4417 73.6311C50.2354 68.5537 59.0408 63.4972 67.8383 58.4252C68.9285 57.7944 69.7341 56.992 70.2649 56.0333L38.1011 37.4005Z" fill="#280068"/>
<path d="M71.0337 22.2021C71.0332 20.9534 70.7662 19.85 70.2261 18.9033L38.1011 37.4007L70.2649 56.0333C70.7804 55.1006 71.0366 54.0187 71.0371 52.7971C71.0371 52.7971 71.0371 32.4024 71.0337 22.2021Z" fill="#390091"/>
<path d="M57.1569 30.434V33.9174H60.6403V30.434H62.3819V33.9174H65.8653V35.6591H62.3819V39.1422H65.8653V40.8838H62.3819V44.3672H60.6403V40.8838H57.1569V44.3672H55.4152V40.8838H51.9321V39.1422H55.4152V35.6591H51.9321V33.9174H55.4152V30.434H57.1569ZM60.6403 35.6588H57.1569V39.1422H60.6403V35.6588Z" fill="white"/>
<path d="M38.1721 12.9402C47.2577 12.9402 55.19 17.8744 59.4389 25.2087L59.3975 25.1381L48.7075 31.2931C46.6016 27.7273 42.7408 25.3207 38.3115 25.271L38.1719 25.2702C31.4179 25.2702 25.9424 30.7458 25.9424 37.4997C25.9402 39.6285 26.4963 41.7206 27.5553 43.5673C29.6633 47.2474 33.6262 49.7295 38.1721 49.7295C42.7462 49.7295 46.7316 47.2159 48.8288 43.4965L48.7778 43.5857L59.4515 49.7691C55.2492 57.0413 47.4255 61.9603 38.4457 62.0583L38.1721 62.0598C29.0579 62.0598 21.1031 57.0951 16.8648 49.722C14.7958 46.1226 13.6121 41.9497 13.6121 37.4997C13.6121 23.936 24.6079 12.9402 38.1721 12.9402Z" fill="white"/>
</svg>
