<svg width="76" height="75" viewBox="0 0 76 75" fill="none" xmlns="http://www.w3.org/2000/svg">
<mask id="mask0_1_178" style="mask-type:luminance" maskUnits="userSpaceOnUse" x="7" y="0" width="62" height="75">
<path d="M68.0969 34.608L47.9083 54.8037L68.0969 74.9995H45.0274L24.8316 54.8037L45.0274 34.608H68.0969ZM45.0274 6.10352e-05L7.53125 37.4962L19.0696 49.0345L68.0969 6.10352e-05H45.0274Z" fill="white"/>
</mask>
<g mask="url(#mask0_1_178)">
<path d="M24.8389 54.8037L36.37 66.3421L68.0969 34.608H45.0274L24.8389 54.8037Z" fill="#39CEFD"/>
</g>
<mask id="mask1_1_178" style="mask-type:luminance" maskUnits="userSpaceOnUse" x="7" y="0" width="62" height="75">
<path d="M68.0969 34.608L47.9083 54.8037L68.0969 74.9995H45.0274L24.8316 54.8037L45.0274 34.608H68.0969ZM45.0274 6.10352e-05L7.53125 37.4962L19.0696 49.0345L68.0969 6.10352e-05H45.0274Z" fill="white"/>
</mask>
<g mask="url(#mask1_1_178)">
<path d="M45.0274 6.10352e-05H68.0969L19.0696 49.0345L7.53125 37.4962L45.0274 6.10352e-05Z" fill="#39CEFD"/>
</g>
<mask id="mask2_1_178" style="mask-type:luminance" maskUnits="userSpaceOnUse" x="7" y="0" width="62" height="75">
<path d="M68.0969 34.608L47.9083 54.8037L68.0969 74.9995H45.0274L24.8316 54.8037L45.0274 34.608H68.0969ZM45.0274 6.10352e-05L7.53125 37.4962L19.0696 49.0345L68.0969 6.10352e-05H45.0274Z" fill="white"/>
</mask>
<g mask="url(#mask2_1_178)">
<path d="M36.3699 66.3421L45.0273 74.9923H68.0968L47.9082 54.8037L36.3699 66.3421Z" fill="#03569B"/>
</g>
<mask id="mask3_1_178" style="mask-type:luminance" maskUnits="userSpaceOnUse" x="7" y="0" width="62" height="75">
<path d="M68.0969 34.608L47.9083 54.8037L68.0969 74.9995H45.0274L24.8316 54.8037L45.0274 34.608H68.0969ZM45.0274 6.10352e-05L7.53125 37.4962L19.0696 49.0345L68.0969 6.10352e-05H45.0274Z" fill="white"/>
</mask>
<g mask="url(#mask3_1_178)">
<path d="M53.4825 60.414L47.9082 54.8037L36.3699 66.3421L53.4825 60.414Z" fill="url(#paint0_linear_1_178)"/>
</g>
<mask id="mask4_1_178" style="mask-type:luminance" maskUnits="userSpaceOnUse" x="7" y="0" width="62" height="75">
<path d="M68.0969 34.608L47.9083 54.8037L68.0969 74.9995H45.0274L24.8316 54.8037L45.0274 34.608H68.0969ZM45.0274 6.10352e-05L7.53125 37.4962L19.0696 49.0345L68.0969 6.10352e-05H45.0274Z" fill="white"/>
</mask>
<g mask="url(#mask4_1_178)">
<path d="M24.8374 54.7997L36.3761 43.261L47.9154 54.7997L36.3761 66.3385L24.8374 54.7997Z" fill="#16B9FD"/>
</g>
<path d="M68.0969 34.608L47.9083 54.8037L68.0969 74.9995H45.0274L24.8316 54.8037L45.0274 34.608H68.0969ZM45.0274 6.10352e-05L7.53125 37.4962L19.0696 49.0345L68.0969 6.10352e-05H45.0274Z" fill="url(#paint1_radial_1_178)"/>
<defs>
<linearGradient id="paint0_linear_1_178" x1="39.7372" y1="68.5688" x2="48.3306" y2="59.9753" gradientUnits="userSpaceOnUse">
<stop stop-color="#1A237E" stop-opacity="0.4"/>
<stop offset="1" stop-color="#1A237E" stop-opacity="0"/>
</linearGradient>
<radialGradient id="paint1_radial_1_178" cx="0" cy="0" r="1" gradientUnits="userSpaceOnUse" gradientTransform="translate(9.23274 5.1118) scale(91.7526 91.7526)">
<stop stop-color="white" stop-opacity="0.1"/>
<stop offset="1" stop-color="white" stop-opacity="0"/>
</radialGradient>
</defs>
</svg>
