<svg width="76" height="75" viewBox="0 0 76 75" fill="none" xmlns="http://www.w3.org/2000/svg">
<path fill-rule="evenodd" clip-rule="evenodd" d="M31.1711 39.7829C31.1711 39.7829 29.2068 40.9259 32.5704 41.312C36.6465 41.7774 38.7285 41.7105 43.2189 40.861C43.2189 40.861 44.4011 41.6012 46.0513 42.2416C35.9823 46.5562 23.2634 41.992 31.1711 39.7829ZM29.9402 34.1526C29.9402 34.1526 27.7366 35.7836 31.1032 36.1318C35.4575 36.5814 38.8945 36.6181 44.8456 35.473C44.8456 35.473 45.6673 36.3071 46.9605 36.7628C34.7881 40.323 21.2313 37.0431 29.9402 34.1526Z" fill="#3174B9"/>
<path fill-rule="evenodd" clip-rule="evenodd" d="M40.3119 24.6006C42.7941 27.4578 39.6613 30.0274 39.6613 30.0274C39.6613 30.0274 45.961 26.776 43.0675 22.7029C40.3661 18.9063 38.2939 17.0201 49.5106 10.5156C49.5106 10.5156 31.9033 14.9113 40.3119 24.6006Z" fill="#CA3132"/>
<path fill-rule="evenodd" clip-rule="evenodd" d="M53.6285 43.9478C53.6285 43.9478 55.0825 45.1466 52.0269 46.0737C46.2166 47.8336 27.8392 48.3643 22.7345 46.1437C20.9008 45.345 24.3412 44.2379 25.4236 44.0041C26.5524 43.7601 27.1967 43.8044 27.1967 43.8044C25.156 42.3675 14.0067 46.6266 21.5343 47.8485C42.0607 51.1767 58.9521 46.3502 53.6285 43.9478ZM32.1162 28.3184C32.1162 28.3184 22.7694 30.539 28.8068 31.3462C31.3568 31.6871 36.4363 31.6086 41.1716 31.2114C45.0403 30.8867 48.9236 30.1921 48.9236 30.1921C48.9236 30.1921 47.5605 30.7771 46.5728 31.4503C37.0797 33.9474 18.7437 32.7844 24.0229 30.2318C28.4864 28.0726 32.1162 28.3184 32.1162 28.3184ZM48.8847 37.6903C58.534 32.6773 54.0726 27.8589 50.9578 28.5082C50.1962 28.6673 49.8545 28.8047 49.8545 28.8047C49.8545 28.8047 50.1386 28.3602 50.6788 28.169C56.8398 26.0039 61.5772 34.5566 48.6923 37.9437C48.6919 37.9437 48.8404 37.8098 48.8847 37.6903Z" fill="#3174B9"/>
<path fill-rule="evenodd" clip-rule="evenodd" d="M43.0676 0.00970459C43.0676 0.00970459 48.4104 5.35589 37.9987 13.5742C29.649 20.1692 36.0951 23.9283 37.9962 28.2249C33.1214 23.8276 29.5458 19.9558 31.9443 16.3533C35.4658 11.0651 45.2234 8.50063 43.0676 0.00970459Z" fill="#CA3132"/>
<path fill-rule="evenodd" clip-rule="evenodd" d="M33.0654 51.2787C42.3259 51.8708 56.5496 50.9497 56.8871 46.5669C56.8871 46.5669 56.2394 48.2282 49.2328 49.5461C41.3276 51.0342 31.576 50.861 25.7942 49.9066C25.7942 49.9066 26.979 50.887 33.0654 51.2787Z" fill="#3174B9"/>
<path fill-rule="evenodd" clip-rule="evenodd" d="M56.4592 59.1382H56.1776V58.9803H56.9375V59.1382H56.6559V59.9266H56.4592V59.1382ZM57.9755 59.1774H57.9721L57.6922 59.9262H57.5638L57.2856 59.1774H57.2822V59.9262H57.0953V58.9799H57.3697L57.6273 59.6493L57.885 58.9799H58.1568V59.9262H57.9759L57.9755 59.1774ZM31.5479 68.0229C30.6746 68.7798 29.7513 69.2055 28.9224 69.2055C27.7414 69.2055 27.1006 68.496 27.1006 67.3608C27.1006 66.1316 27.7866 65.2323 30.5325 65.2323H31.5475L31.5479 68.0229ZM33.9584 70.7423V62.3239C33.9584 60.1724 32.7314 58.7525 29.7735 58.7525C28.0477 58.7525 26.5349 59.1787 25.3049 59.7218L25.659 61.2129C26.6279 60.8571 27.8805 60.5273 29.1101 60.5273C30.8141 60.5273 31.5475 61.2129 31.5475 62.6323V63.6968H30.6959C26.5567 63.6968 24.6888 65.3027 24.6888 67.717C24.6888 69.7973 25.9197 70.9799 28.2367 70.9799C29.7261 70.9799 30.8388 70.3651 31.8777 69.4654L32.0667 70.7423H33.9584ZM42.0035 70.7423H38.9978L35.3787 58.9667H38.0042L40.2504 66.2029L40.7504 68.377C41.8836 65.2323 42.6878 62.0397 43.0901 58.9667H45.6431C44.9596 62.844 43.7284 67.1009 42.0035 70.7423ZM53.5385 68.0229C52.6626 68.7798 51.7393 69.2055 50.9121 69.2055C49.7311 69.2055 49.0912 68.496 49.0912 67.3608C49.0912 66.1316 49.7776 65.2323 52.5218 65.2323H53.5385V68.0229ZM55.9498 70.7423V62.3239C55.9498 60.1724 54.719 58.7525 51.7641 58.7525C50.0366 58.7525 48.5242 59.1787 47.2942 59.7218L47.6483 61.2129C48.6172 60.8571 49.8724 60.5273 51.1024 60.5273C52.8038 60.5273 53.538 61.2129 53.538 62.6323V63.6968H52.6865C48.5468 63.6968 46.6803 65.3027 46.6803 67.717C46.6803 69.7973 47.9086 70.9799 50.226 70.9799C51.7167 70.9799 52.8277 70.3651 53.8691 69.4654L54.0589 70.7423H55.9498ZM22.0458 72.7432C21.3589 73.7471 20.248 74.5419 19.0333 74.9903L17.843 73.5884C18.7684 73.1135 19.5611 72.3469 19.9301 71.6335C20.248 70.9978 20.3807 70.1804 20.3807 68.2238V54.7784H22.9426V68.0383C22.9426 70.6553 22.7336 71.7129 22.0458 72.7432Z" fill="#CA3132"/>
</svg>
